<svg width="192" height="192" xmlns="http://www.w3.org/2000/svg" xmlns:xlink="http://www.w3.org/1999/xlink"><defs><path d="M88 176A88 88 0 1 0 88 0a88 88 0 0 0 0 176z" id="b"/><filter x="-4.5%" y="-2.3%" width="109.1%" height="109.1%" filterUnits="objectBoundingBox" id="a"><feOffset dy="4" in="SourceAlpha" result="shadowOffsetOuter1"/><feGaussianBlur stdDeviation="2" in="shadowOffsetOuter1" result="shadowBlurOuter1"/><feColorMatrix values="0 0 0 0 0 0 0 0 0 0 0 0 0 0 0 0 0 0 0.2 0" in="shadowBlurOuter1"/></filter><path d="M88 176.2a88 88 0 1 0 0-176 88 88 0 0 0 0 176z" id="c"/><radialGradient cx="27.4%" cy="0%" fx="27.4%" fy="0%" r="93.9%" gradientTransform="matrix(0 1 -.8005 0 .3 -.3)" id="d"><stop stop-opacity=".1" offset="0%"/><stop stop-opacity="0" offset="100%"/></radialGradient></defs><g fill="none" fill-rule="evenodd"><path d="M0 0h192v192H0z"/><g transform="translate(8 8)"><use fill="#000" filter="url(#a)" xlink:href="#b"/><use fill="#FFEB3B" xlink:href="#b"/></g><path d="M184 95.5v.5a88 88 0 1 1-176-.5 88 88 0 0 0 176 0z" fill-opacity=".2" fill="#BF360C"/><path d="M184 96.5V96a88 88 0 1 0-176 .5 88 88 0 0 1 176 0z" fill-opacity=".2" fill="#FFF"/><g><g transform="translate(8 7.8)"><mask id="e" fill="#fff"><use xlink:href="#c"/></mask><path d="M201.3 135.5l-77.4-77.4C116 51 106 45.8 88.5 45.7h-.6A49.4 49.4 0 0 0 52.5 58c-11.8 14-11.8 47.7-11.8 47.7l78 78s2.6 2.6 19.9-6.3a68.5 68.5 0 0 1 27.6-5.6c2.2 0 17.2.2 27.6 5.6 17.3 9 19.9 6.3 19.9 6.3s0-33.6-11.8-47.7l-.6-.6z" fill="url(#d)" mask="url(#e)"/></g><g transform="translate(48 49.8)"><path d="M10.6 91.3c-7-2.4-6.3-29.9-6.3-29.9L24 53.2a77.4 77.4 0 0 1 48.6 0L92 61.4s.7 27.5-6.3 29.9c-7 2.3-9.7-12.7-37.6-12.7-27.9 0-30.6 15-37.6 12.7z" fill="#1E88E5"/><rect fill="#1E88E5" x="43.1" width="10.1" height="4.1" rx="2"/><path d="M12.5 16C.7 30.3.7 63.9.7 63.9s2.6 2.6 19.9-6.3a68.5 68.5 0 0 1 27.6-5.6c2.2 0 17.2.2 27.6 5.6 17.3 9 19.9 6.3 19.9 6.3s0-33.6-11.8-47.7C76 9 66 3.8 48.5 3.7h-.6A49.4 49.4 0 0 0 12.5 16z" fill="#2196F3"/></g></g></g></svg>